<?xml version="1.0" standalone="no"?>
<!DOCTYPE svg PUBLIC "-//W3C//DTD SVG 20010904//EN"
 "http://www.w3.org/TR/2001/REC-SVG-20010904/DTD/svg10.dtd">
<svg version="1.0" xmlns="http://www.w3.org/2000/svg"
 width="1500.000000pt" height="1500.000000pt" viewBox="0 0 1500.000000 1500.000000"
 preserveAspectRatio="xMidYMid meet">
<metadata>
Created by potrace 1.14, written by Peter Selinger 2001-2017
</metadata>
<g transform="translate(0.000000,1500.000000) scale(0.100000,-0.100000)"
fill="#000000" stroke="none">
<path d="M6898 13495 c-3 -2 -34 -6 -167 -21 -32 -3 -74 -9 -131 -19 -14 -2
-56 -9 -94 -15 -38 -6 -73 -13 -77 -15 -4 -3 -27 -7 -50 -10 -24 -3 -65 -10
-90 -16 -26 -6 -55 -12 -65 -14 -11 -2 -21 -4 -24 -5 -3 -1 -8 -2 -11 -2 -4 1
-22 -3 -40 -9 -19 -6 -47 -12 -63 -14 -15 -2 -34 -9 -40 -15 -7 -5 -15 -8 -17
-5 -3 2 -26 -2 -52 -10 -26 -8 -47 -12 -47 -9 0 3 -9 0 -21 -6 -11 -6 -29 -13
-40 -16 -10 -2 -29 -6 -41 -9 -13 -3 -34 -9 -48 -14 -14 -5 -64 -22 -112 -36
-49 -15 -88 -31 -88 -36 0 -7 38 4 140 39 8 3 18 5 22 4 4 -1 20 3 35 10 15 6
35 12 43 13 8 0 26 5 40 10 14 5 32 9 40 10 8 1 42 9 75 18 33 9 74 18 90 21
17 3 45 10 64 15 18 6 36 10 40 9 3 0 8 1 11 2 8 3 43 10 70 14 14 2 25 5 25
6 0 1 14 3 30 5 39 5 116 17 135 22 28 6 127 20 195 28 22 2 63 7 90 10 28 4
70 8 95 10 25 2 88 7 140 11 125 10 716 10 805 0 39 -4 93 -9 120 -12 148 -13
178 -17 265 -29 25 -3 61 -8 80 -10 19 -3 57 -9 84 -15 26 -5 52 -8 56 -5 5 3
11 1 15 -4 3 -5 13 -10 23 -10 28 0 76 -8 94 -16 9 -4 21 -4 27 -1 5 4 13 1
16 -5 4 -5 13 -8 20 -5 7 2 16 2 19 -2 7 -6 23 -10 66 -16 14 -2 33 -7 43 -11
10 -4 31 -8 47 -9 17 0 30 -4 30 -8 0 -5 9 -8 20 -8 23 0 143 -32 249 -66 41
-13 78 -21 82 -18 5 3 9 1 9 -4 0 -9 65 -28 83 -24 4 1 7 -3 7 -9 0 -5 4 -8 9
-4 5 3 12 1 16 -5 3 -5 13 -10 21 -10 9 0 50 -14 92 -31 43 -17 85 -31 95 -32
9 -1 17 -6 17 -11 0 -5 3 -6 7 -3 3 4 11 3 17 -1 6 -5 34 -17 61 -27 28 -10
55 -22 62 -27 7 -5 17 -7 23 -3 5 3 10 -1 10 -9 0 -9 -3 -16 -7 -16 -7 0 -115
36 -143 48 -8 3 -19 6 -25 7 -5 0 -21 7 -35 15 -14 7 -26 13 -27 12 -2 -1 -4
-2 -5 -1 -2 0 -10 2 -18 4 -8 2 -48 15 -88 29 -41 14 -77 25 -80 24 -4 -1 -38
8 -77 19 -94 28 -128 37 -138 35 -4 -1 -16 2 -25 7 -9 5 -35 12 -57 15 -22 4
-56 11 -75 16 -44 12 -99 22 -126 25 -11 1 -26 5 -33 9 -7 4 -15 6 -18 3 -3
-3 -15 -2 -27 3 -24 9 -76 18 -141 26 -22 2 -69 9 -105 15 -36 5 -83 11 -105
14 -22 2 -62 6 -90 9 -175 21 -401 30 -730 29 -259 0 -520 -7 -520 -13 0 -1
-27 -3 -60 -6 -104 -8 -221 -19 -295 -30 -117 -16 -130 -18 -260 -40 -38 -7
-79 -14 -95 -18 -5 -2 -32 -7 -60 -11 -27 -5 -52 -10 -55 -10 -3 -1 -18 -5
-35 -9 -16 -4 -37 -10 -45 -13 -8 -3 -24 -7 -36 -8 -11 -2 -40 -9 -65 -15 -24
-7 -51 -14 -59 -15 -73 -17 -320 -90 -355 -105 -11 -5 -47 -17 -80 -27 -33 -9
-63 -22 -67 -28 -4 -5 -8 -7 -8 -3 0 6 -24 -2 -95 -31 -11 -5 -83 -35 -160
-66 -167 -69 -429 -193 -433 -206 -2 -5 -10 -9 -18 -9 -13 0 -60 -26 -74 -40
-3 -3 -11 -6 -19 -8 -8 -2 -46 -22 -85 -45 -39 -23 -83 -48 -97 -55 -15 -7
-36 -22 -48 -33 -11 -11 -23 -19 -27 -18 -8 2 -41 -21 -67 -46 -11 -11 -17
-14 -12 -7 6 11 3 11 -14 0 -12 -7 -21 -16 -21 -20 0 -5 -4 -8 -9 -8 -12 0
-103 -60 -113 -74 -4 -6 -11 -11 -15 -11 -13 -1 -163 -108 -163 -117 0 -4 -6
-8 -12 -8 -12 0 -43 -22 -88 -62 -8 -7 -44 -35 -80 -63 -36 -27 -69 -55 -75
-62 -5 -6 -39 -35 -75 -64 -36 -29 -87 -74 -115 -100 -27 -26 -64 -60 -82 -77
-18 -16 -29 -33 -25 -37 4 -5 2 -5 -4 -2 -11 6 -270 -257 -385 -393 -106 -124
-149 -177 -146 -181 1 -2 0 -3 -2 -2 -2 1 -17 -17 -34 -40 -17 -23 -34 -46
-39 -52 -49 -58 -58 -71 -58 -76 0 -3 -9 -17 -21 -30 -12 -13 -37 -49 -57 -79
-20 -30 -40 -56 -44 -58 -5 -2 -8 -10 -8 -18 0 -8 -4 -14 -10 -14 -5 0 -10 -7
-10 -15 0 -8 -5 -15 -11 -15 -5 0 -7 -5 -4 -10 3 -6 0 -13 -8 -16 -14 -5 -31
-39 -28 -57 1 -5 -3 -6 -9 -2 -9 6 -14 -8 -11 -28 1 -5 -3 -6 -9 -2 -5 3 -10
1 -10 -4 0 -20 -3 -26 -19 -38 -9 -7 -11 -13 -6 -13 6 0 5 -4 -1 -8 -7 -4 -28
-35 -48 -69 -20 -35 -41 -63 -46 -63 -14 0 -13 6 9 48 10 20 19 41 19 46 0 5
4 12 9 15 12 7 83 129 83 141 0 4 3 10 8 12 8 3 62 84 62 93 0 4 7 13 15 22 8
8 13 19 10 24 -4 5 -2 9 4 9 11 0 57 71 53 83 -1 4 2 7 6 7 13 0 88 112 84
125 -2 5 0 7 4 3 6 -7 68 74 73 94 1 4 16 23 34 41 17 18 39 44 47 57 8 13 23
30 33 39 9 8 17 19 17 24 0 4 10 18 23 31 30 32 119 135 135 158 8 10 23 29
35 42 12 12 50 52 84 88 34 36 59 68 56 72 -4 3 1 6 11 6 9 0 15 4 12 9 -3 5
4 11 15 14 12 3 18 10 14 16 -3 6 -2 11 4 11 14 0 101 87 94 94 -4 3 -1 6 5 6
6 0 31 19 55 43 40 38 103 94 207 186 26 23 31 30 18 31 -10 0 -18 -7 -18 -16
0 -8 -4 -12 -10 -9 -5 3 -15 -3 -22 -15 -7 -11 -18 -20 -24 -20 -7 0 -27 -17
-45 -37 -18 -21 -34 -37 -36 -36 -3 3 -31 -22 -137 -119 -28 -26 -55 -48 -59
-48 -5 0 -5 -4 -2 -10 3 -5 1 -10 -5 -10 -18 0 -220 -203 -213 -214 3 -5 2 -6
-4 -3 -6 4 -30 -17 -54 -46 -24 -28 -48 -55 -55 -59 -6 -4 -47 -51 -90 -105
-43 -53 -94 -113 -111 -133 -18 -19 -33 -40 -33 -47 0 -7 -6 -16 -12 -20 -20
-12 -95 -108 -78 -99 8 5 2 -3 -14 -18 -16 -14 -26 -26 -23 -26 3 0 -5 -11
-19 -25 -14 -14 -22 -30 -18 -37 4 -6 3 -8 -3 -5 -10 7 -28 -20 -25 -35 1 -5
-2 -8 -7 -8 -5 0 -24 -24 -42 -52 -19 -29 -39 -59 -46 -66 -7 -7 -13 -18 -13
-23 0 -6 -7 -17 -15 -26 -8 -8 -12 -19 -9 -25 4 -6 2 -8 -4 -4 -6 3 -13 -3
-17 -14 -3 -11 -13 -26 -20 -34 -8 -8 -16 -20 -17 -27 -2 -7 -9 -20 -16 -28
-7 -9 -12 -20 -11 -25 0 -5 -3 -12 -8 -15 -10 -7 -74 -112 -76 -126 -1 -5 -8
-18 -17 -28 -8 -10 -14 -20 -12 -23 1 -2 -4 -12 -13 -20 -8 -9 -13 -20 -10
-25 4 -5 2 -9 -2 -9 -10 0 -58 -90 -55 -102 1 -5 -2 -8 -7 -8 -7 0 -22 -36
-20 -49 0 -2 -3 -7 -8 -10 -13 -10 -53 -95 -53 -114 0 -10 -5 -15 -10 -12 -5
3 -10 0 -10 -8 0 -8 -7 -27 -14 -43 -8 -15 -13 -31 -10 -36 3 -4 1 -8 -3 -8
-5 0 -16 -17 -25 -37 -32 -75 -70 -168 -72 -179 -1 -7 -8 -19 -15 -28 -7 -9
-11 -16 -8 -16 3 0 -7 -31 -23 -70 -16 -38 -26 -70 -23 -70 3 0 1 -6 -5 -12
-6 -7 -11 -17 -12 -23 -3 -11 -4 -14 -25 -75 -18 -51 -26 -78 -28 -100 -1 -8
-4 -17 -7 -20 -6 -6 -47 -133 -54 -170 -3 -14 -14 -56 -25 -94 -11 -38 -18
-73 -15 -77 3 -5 0 -9 -5 -9 -6 0 -10 -3 -9 -7 1 -5 -3 -30 -10 -58 -6 -27
-14 -61 -17 -75 -3 -14 -14 -68 -25 -120 -11 -52 -22 -111 -25 -130 -4 -19
-10 -60 -15 -90 -21 -126 -30 -195 -45 -335 -4 -38 -9 -83 -11 -100 -17 -167
-23 -637 -10 -835 8 -123 15 -216 20 -260 3 -19 7 -62 10 -95 3 -33 8 -71 11
-85 2 -14 7 -43 10 -65 3 -23 7 -52 10 -65 3 -13 7 -42 10 -65 3 -22 9 -53 12
-70 4 -16 7 -34 8 -40 0 -5 4 -23 8 -40 3 -16 9 -46 12 -65 8 -46 54 -241 62
-260 7 -18 9 -26 16 -60 10 -51 29 -115 38 -126 5 -6 6 -14 2 -17 -3 -4 -2
-17 4 -30 6 -12 17 -42 24 -67 7 -25 17 -54 23 -65 5 -11 11 -27 12 -35 5 -32
39 -133 52 -154 3 -6 8 -20 9 -31 2 -11 8 -21 13 -23 5 -2 7 -9 4 -17 -3 -7
-1 -16 5 -20 6 -3 11 -15 11 -26 0 -10 5 -19 11 -19 5 0 8 -3 5 -8 -2 -4 3
-23 11 -42 9 -19 17 -40 18 -45 3 -11 22 -55 76 -173 16 -35 29 -68 29 -73 0
-5 5 -9 12 -9 6 0 9 -3 5 -6 -3 -3 7 -30 24 -60 16 -30 26 -54 22 -54 -3 0 1
-8 9 -17 9 -10 19 -29 23 -43 4 -14 11 -30 16 -36 5 -6 25 -42 45 -80 21 -38
42 -72 48 -76 6 -4 8 -8 4 -8 -11 0 62 -140 73 -140 5 0 8 -3 7 -8 -5 -15 35
-91 45 -85 6 3 7 2 4 -4 -4 -5 21 -54 53 -108 33 -54 60 -102 60 -106 0 -5 5
-9 10 -9 6 0 10 -4 10 -9 0 -18 137 -221 144 -213 4 4 6 2 5 -3 -4 -12 32 -75
43 -75 4 0 8 -6 8 -14 0 -8 8 -21 19 -28 10 -7 19 -17 20 -23 1 -5 11 -20 21
-33 11 -12 20 -26 20 -31 0 -5 4 -11 8 -13 4 -1 23 -24 42 -51 18 -26 37 -47
42 -47 4 0 8 -5 8 -10 0 -9 31 -48 73 -92 9 -10 17 -21 17 -24 0 -12 28 -33
35 -26 5 4 5 2 2 -5 -4 -6 6 -22 22 -36 17 -14 28 -27 25 -30 -3 -2 9 -16 26
-31 17 -14 29 -26 25 -26 -3 0 3 -10 15 -22 11 -12 20 -26 20 -30 0 -5 5 -6
10 -3 5 3 10 2 10 -4 0 -6 69 -79 153 -163 171 -170 287 -280 287 -272 0 3 12
-8 28 -24 22 -23 106 -92 262 -216 65 -51 88 -65 95 -58 5 4 5 1 1 -5 -4 -7
-3 -13 2 -13 4 0 17 -8 28 -18 38 -33 87 -65 80 -51 -4 8 1 4 11 -8 21 -25
226 -163 242 -163 6 0 11 -4 11 -9 0 -5 8 -11 18 -15 9 -3 31 -15 47 -26 45
-30 89 -54 98 -55 4 0 11 -4 15 -10 11 -16 68 -45 88 -45 9 0 14 -3 11 -7 -4
-3 17 -19 46 -34 121 -64 152 -79 161 -78 5 0 12 -3 15 -8 10 -13 49 -33 66
-33 8 0 15 -4 15 -8 0 -6 55 -32 67 -32 2 0 29 -13 60 -29 53 -27 128 -61 178
-81 11 -4 37 -16 59 -25 21 -9 44 -18 50 -20 6 -1 25 -7 41 -14 17 -7 38 -13
48 -14 9 -1 17 -4 17 -8 0 -3 21 -12 48 -19 26 -7 52 -16 57 -20 6 -3 30 -12
55 -19 25 -6 54 -16 65 -21 42 -18 188 -60 195 -55 5 3 10 1 12 -5 2 -6 18
-11 36 -13 17 -1 32 -6 32 -10 0 -4 6 -7 13 -6 6 1 19 -1 27 -4 15 -6 85 -24
125 -32 11 -2 34 -7 50 -10 17 -3 37 -8 45 -10 8 -2 29 -7 45 -10 17 -2 40 -7
53 -10 44 -10 58 -13 102 -21 25 -4 56 -9 70 -10 14 -1 25 -3 25 -4 0 -3 9 -4
75 -14 50 -8 153 -21 265 -34 83 -9 1185 -8 1265 1 36 5 83 10 105 12 22 1 67
8 100 14 33 6 78 13 100 16 22 2 51 7 65 10 14 3 41 8 60 11 19 3 53 9 75 14
22 5 56 12 75 15 19 3 60 12 91 20 30 8 66 17 80 19 13 2 24 5 24 6 0 1 12 4
27 6 55 9 343 96 353 106 7 8 4 9 -10 4 -20 -8 -155 -47 -210 -61 -16 -5 -33
-8 -36 -7 -4 1 -22 -3 -40 -9 -19 -5 -50 -12 -69 -15 -19 -3 -42 -8 -50 -11
-8 -3 -28 -7 -45 -9 -16 -2 -37 -7 -45 -11 -8 -3 -24 -7 -35 -8 -21 -2 -68
-10 -150 -26 -27 -5 -68 -11 -90 -13 -22 -2 -53 -6 -70 -9 -36 -6 -133 -18
-192 -23 -24 -2 -62 -6 -85 -8 -215 -19 -540 -24 -798 -12 -151 7 -186 10
-285 21 -56 6 -113 12 -195 20 -19 2 -44 6 -55 8 -11 3 -42 8 -70 11 -103 15
-121 18 -160 26 -22 5 -56 11 -75 15 -19 3 -48 8 -65 12 -16 3 -39 7 -50 9
-11 2 -31 6 -45 9 -14 4 -34 8 -45 10 -37 8 -60 13 -60 16 0 1 -9 3 -20 4 -11
2 -47 10 -80 20 -87 24 -248 66 -260 68 -5 1 -13 6 -16 10 -3 4 -17 9 -30 11
-13 2 -31 6 -39 9 -28 10 -95 31 -102 32 -3 0 -10 3 -14 8 -4 4 -15 7 -25 7
-17 0 -35 17 -27 26 3 2 27 -3 54 -12 27 -8 58 -17 69 -19 11 -2 54 -13 95
-25 80 -22 116 -31 140 -35 8 -1 22 -5 30 -8 16 -5 124 -29 150 -32 8 -1 26
-5 40 -8 57 -13 220 -42 290 -51 14 -2 41 -6 60 -10 33 -6 78 -11 180 -21 25
-3 62 -7 83 -10 148 -19 861 -27 1102 -12 181 12 228 15 270 21 22 3 63 8 90
11 59 6 117 13 157 20 15 3 43 7 61 10 48 8 139 24 167 30 14 3 41 8 60 11 19
3 53 10 74 16 22 5 51 11 65 13 14 2 26 4 26 5 0 2 20 6 65 15 19 3 53 11 75
17 22 6 43 12 48 14 4 1 8 2 10 4 1 1 10 3 19 5 19 3 85 23 108 32 8 4 18 6
22 5 8 -2 305 98 428 143 41 15 78 33 82 39 4 6 8 8 8 4 0 -7 95 30 198 78 29
13 57 24 62 24 6 0 10 5 10 10 0 6 3 9 8 8 12 -3 52 13 52 21 0 4 6 8 13 8 22
0 187 85 187 96 0 6 3 7 6 4 7 -7 84 31 95 46 3 5 10 9 15 9 17 1 74 32 74 40
0 4 5 8 11 8 14 0 181 100 191 114 4 6 8 7 8 3 0 -4 6 -3 13 3 6 6 67 47 135
91 67 45 122 85 122 91 0 5 4 7 9 4 10 -6 101 62 101 76 0 5 4 7 9 4 5 -4 19
6 31 21 12 16 18 22 14 14 -10 -20 226 168 275 219 14 14 25 23 26 20 1 -3 9
2 18 11 9 9 13 20 9 24 -4 4 -2 5 4 3 7 -1 28 13 47 33 20 20 38 34 41 31 3
-3 6 2 6 11 0 10 4 16 9 15 4 -2 29 17 54 42 24 25 58 57 73 71 67 62 204 209
204 219 0 6 5 8 10 5 6 -3 10 -1 10 4 0 6 11 21 25 33 13 11 22 25 19 30 -3 5
-2 7 3 6 4 -2 10 1 13 6 3 5 16 21 30 35 47 49 105 125 102 134 -1 5 2 6 8 2
5 -3 10 -2 10 3 0 4 9 18 20 30 12 12 18 22 15 22 -3 0 3 8 13 18 34 35 77 95
74 104 -1 5 2 7 7 4 10 -6 26 22 22 39 -2 5 1 7 5 3 8 -9 64 63 58 74 -3 5 -1
8 4 8 11 0 138 191 134 202 -1 4 2 8 8 8 5 0 35 43 65 95 55 94 75 114 72 75
-1 -11 -4 -20 -8 -20 -7 0 -33 -52 -31 -62 1 -5 -2 -8 -6 -8 -10 0 -37 -50
-34 -62 1 -5 -2 -8 -7 -8 -10 0 -54 -71 -50 -80 2 -3 -9 -18 -24 -34 -15 -16
-24 -32 -22 -36 3 -5 1 -10 -3 -12 -4 -1 -37 -46 -72 -98 -36 -52 -80 -115
-98 -140 -19 -25 -43 -58 -55 -74 -12 -16 -42 -55 -67 -86 -25 -32 -58 -74
-75 -96 -16 -21 -29 -41 -27 -46 1 -4 -4 -8 -10 -8 -7 -1 -26 -19 -43 -41 -16
-22 -45 -55 -62 -73 -18 -18 -33 -38 -33 -45 0 -7 -4 -9 -10 -6 -5 3 -10 2
-10 -3 0 -4 -15 -23 -32 -42 -18 -18 -26 -30 -18 -26 8 4 6 0 -5 -8 -36 -29
-49 -42 -100 -96 -27 -30 -49 -58 -47 -62 1 -4 -1 -7 -6 -6 -6 3 -61 -47 -196
-177 -17 -16 -30 -33 -28 -38 1 -5 -1 -6 -6 -3 -9 5 -67 -52 -60 -59 8 -8 77
49 83 68 4 9 10 15 15 12 5 -3 17 6 28 20 11 14 25 25 30 25 6 0 13 9 17 20 3
11 12 19 18 17 7 -1 11 4 9 11 -1 6 2 11 7 10 5 -2 25 13 44 33 20 20 38 34
41 32 3 -3 10 6 15 21 6 14 13 26 16 26 4 0 3 -6 -1 -13 -5 -8 -3 -8 9 2 9 7
14 18 10 24 -3 6 -1 7 6 3 7 -4 15 2 20 16 6 13 10 20 10 16 1 -5 9 0 19 10
11 9 17 20 15 25 -2 4 1 7 8 7 14 0 59 47 59 62 0 6 3 9 6 5 6 -6 44 23 44 34
0 4 28 36 63 72 71 74 119 132 129 156 4 9 7 12 7 8 1 -9 31 18 31 27 0 3 20
27 45 54 25 26 45 52 45 59 0 6 3 13 8 15 20 9 72 81 66 91 -4 7 -4 9 1 5 7
-7 40 29 39 42 0 3 9 15 21 26 29 31 57 72 53 78 -1 3 4 11 13 18 20 17 119
164 119 178 0 5 4 10 8 10 10 0 45 60 35 60 -4 0 0 5 10 11 9 5 17 17 17 24 0
8 5 15 12 15 6 0 9 3 5 6 -3 3 2 14 11 25 9 11 15 22 14 26 -2 3 0 9 6 12 9 6
29 40 107 186 26 50 56 105 67 123 11 17 16 32 11 32 -4 0 -3 4 2 8 16 12 45
69 38 76 -3 3 -1 6 5 6 7 0 11 3 10 8 -1 4 10 31 25 59 15 29 27 55 27 58 0 3
10 29 23 58 53 116 85 194 84 207 0 3 9 23 20 45 12 22 22 45 23 50 1 6 6 20
11 33 5 13 9 29 9 36 0 7 3 16 7 20 5 4 8 11 9 14 0 4 3 14 7 22 26 67 46 130
41 130 -4 0 0 7 7 17 8 9 13 19 13 22 -1 3 0 11 1 16 2 6 15 48 29 95 32 110
49 171 50 190 1 9 5 20 8 25 5 9 62 257 72 315 2 14 7 36 10 50 8 34 12 62 37
225 22 144 25 171 34 265 3 30 7 75 9 100 25 250 26 657 2 970 -7 81 -25 249
-31 291 -3 14 -7 43 -10 65 -2 21 -7 50 -10 64 -3 14 -7 43 -10 65 -11 79 -14
97 -21 117 -3 11 -8 32 -10 46 -8 50 -11 67 -13 67 -1 0 -4 14 -7 30 -2 17 -6
37 -8 45 -2 8 -7 34 -11 58 -4 23 -12 45 -16 48 -5 3 -7 10 -4 15 4 5 3 15 -2
22 -4 6 -8 19 -9 27 -1 19 -15 72 -22 85 -3 5 -7 22 -9 39 -2 16 -8 34 -13 41
-5 7 -7 15 -4 18 3 3 2 12 -2 19 -9 13 -14 33 -16 56 -1 6 -4 12 -8 12 -4 0
-7 6 -7 13 -1 25 -24 96 -33 102 -6 4 -8 10 -5 15 3 5 0 21 -7 37 -6 15 -12
31 -13 36 -2 4 -4 10 -5 15 -1 4 -2 10 -1 15 0 4 -4 7 -10 7 -5 0 -8 4 -4 9 3
5 -6 34 -19 65 -13 30 -22 57 -18 60 3 3 0 6 -6 6 -6 0 -9 7 -6 15 4 8 1 15
-5 15 -6 0 -10 3 -9 8 4 13 -44 132 -54 132 -5 0 -7 4 -4 9 3 5 -2 24 -11 42
-10 19 -18 39 -19 44 -1 6 -20 49 -43 97 -23 49 -40 91 -39 94 2 3 -5 10 -15
15 -9 6 -15 14 -12 19 6 9 -32 80 -50 92 -5 4 -6 8 -2 8 4 0 2 10 -5 23 -7 12
-12 25 -13 29 0 4 -7 15 -15 25 -9 10 -16 21 -18 26 -6 22 -56 113 -66 119 -6
4 -7 8 -3 8 4 0 -4 21 -19 48 -15 26 -43 76 -62 112 -19 36 -39 68 -46 72 -6
4 -7 8 -3 8 5 0 -1 13 -12 29 -12 16 -21 34 -21 40 0 7 -7 14 -15 17 -8 4 -13
10 -10 14 3 4 -3 18 -13 31 -10 13 -24 36 -31 51 -8 15 -23 37 -33 48 -10 11
-16 20 -12 20 3 0 -5 15 -20 34 -14 19 -26 37 -26 40 0 12 -58 85 -64 81 -3
-3 -4 -2 -1 1 5 7 -54 97 -67 102 -4 2 -8 9 -8 14 0 6 -7 18 -15 27 -9 9 -34
41 -56 71 -103 141 -159 210 -172 210 -5 0 -8 3 -4 6 6 7 -10 28 -75 95 -26
27 -45 49 -42 49 10 0 -61 75 -264 278 -117 117 -217 210 -222 207 -6 -4 -9
-1 -8 7 2 7 -3 12 -9 11 -7 -2 -13 4 -13 12 0 8 -4 15 -9 15 -6 0 -23 12 -38
26 -15 14 -45 40 -67 58 -21 17 -44 37 -51 43 -23 22 -159 127 -197 153 -21
14 -38 28 -38 33 0 4 -5 7 -11 7 -6 0 -16 6 -23 13 -19 18 -326 222 -331 220
-3 -1 -16 9 -31 22 -15 14 -30 22 -35 19 -5 -3 -9 -1 -9 4 0 9 -50 37 -62 34
-5 -1 -8 2 -8 6 0 8 -50 36 -58 33 -1 -1 -12 8 -24 19 -12 11 -36 24 -55 31
-18 6 -33 15 -33 20 0 5 -9 9 -20 9 -11 0 -20 4 -20 8 0 9 -100 57 -112 54 -5
-1 -8 2 -8 6 0 5 -30 23 -67 40 -185 85 -243 110 -243 104 0 -4 -4 -2 -8 4 -4
5 -65 33 -137 61 -145 57 -166 65 -180 69 -5 2 -71 24 -145 50 -136 47 -327
104 -339 102 -3 -1 -13 2 -21 5 -18 8 -255 67 -290 73 -14 2 -72 13 -130 25
-117 23 -124 24 -195 34 -27 3 -63 9 -80 12 -16 3 -48 7 -70 9 -22 2 -53 7
-70 10 -28 6 -1251 15 -1257 9z m-201 -351 c-3 -3 -12 -4 -19 -1 -8 3 -5 6 6
6 11 1 17 -2 13 -5z m-847 -198 c0 -2 -7 -7 -16 -10 -8 -3 -12 -2 -9 4 6 10
25 14 25 6z m3485 -56 c3 -6 -1 -7 -9 -4 -18 7 -21 14 -7 14 6 0 13 -4 16 -10z
m-3880 -90 c-3 -5 -12 -10 -18 -10 -7 0 -6 4 3 10 19 12 23 12 15 0z m-100
-40 c-3 -5 -12 -10 -18 -10 -7 0 -6 4 3 10 19 12 23 12 15 0z m-105 -44 c0 -2
-7 -7 -16 -10 -8 -3 -12 -2 -9 4 6 10 25 14 25 6z m-40 -20 c0 -2 -7 -7 -16
-10 -8 -3 -12 -2 -9 4 6 10 25 14 25 6z m-130 -60 c0 -2 -7 -7 -16 -10 -8 -3
-12 -2 -9 4 6 10 25 14 25 6z m4895 -24 c-3 -3 -11 0 -18 7 -9 10 -8 11 6 5
10 -3 15 -9 12 -12z m36 -19 c13 -16 12 -17 -3 -4 -10 7 -18 15 -18 17 0 8 8
3 21 -13z m40 -20 c13 -16 12 -17 -3 -4 -17 13 -22 21 -14 21 2 0 10 -8 17
-17z m-5151 -28 c-7 -8 -20 -15 -29 -15 -11 0 -8 5 9 14 33 19 35 19 20 1z
m5241 -22 c13 -17 13 -17 -6 -3 -11 8 -22 16 -24 17 -2 2 0 3 6 3 6 0 17 -8
24 -17z m49 -23 c0 -5 -2 -10 -4 -10 -3 0 -8 5 -11 10 -3 6 -1 10 4 10 6 0 11
-4 11 -10z m70 -46 c0 -2 -9 0 -20 6 -11 6 -20 13 -20 16 0 2 9 0 20 -6 11 -6
20 -13 20 -16z m55 -24 c3 -6 -1 -7 -9 -4 -18 7 -21 14 -7 14 6 0 13 -4 16
-10z m36 -27 c13 -16 12 -17 -3 -4 -17 13 -22 21 -14 21 2 0 10 -8 17 -17z
m-5721 -7 c0 -2 -8 -10 -17 -17 -16 -13 -17 -12 -4 4 13 16 21 21 21 13z m-40
-19 c0 -2 -10 -12 -22 -23 l-23 -19 19 23 c18 21 26 27 26 19z m5841 -24 c13
-16 12 -17 -3 -4 -17 13 -22 21 -14 21 2 0 10 -8 17 -17z m-5981 -68 c0 -2
-10 -9 -22 -15 -22 -11 -22 -10 -4 4 21 17 26 19 26 11z m-70 -49 c0 -2 -7 -7
-16 -10 -8 -3 -12 -2 -9 4 6 10 25 14 25 6z m6276 -27 c19 -22 19 -22 -3 -8
-13 8 -23 17 -23 21 0 12 6 9 26 -13z m92 -74 c-3 -3 -9 2 -12 12 -6 14 -5 15
5 6 7 -7 10 -15 7 -18z m-6503 5 c-3 -5 -12 -10 -18 -10 -7 0 -6 4 3 10 19 12
23 12 15 0z m6540 -20 c3 -5 1 -10 -4 -10 -6 0 -11 5 -11 10 0 6 2 10 4 10 3
0 8 -4 11 -10z m76 -57 c13 -17 13 -17 -6 -3 -11 8 -22 16 -24 17 -2 2 0 3 6
3 6 0 17 -8 24 -17z m-6746 -13 c-10 -11 -22 -20 -28 -20 -5 0 1 9 14 20 31
25 37 25 14 0z m-72 -55 c-3 -9 -8 -14 -10 -11 -3 3 -2 9 2 15 9 16 15 13 8
-4z m6950 -44 c-2 -3 -18 10 -36 29 l-32 34 36 -30 c20 -16 34 -31 32 -33z
m-6993 5 c0 -2 -7 -7 -16 -10 -8 -3 -12 -2 -9 4 6 10 25 14 25 6z m-59 -49
c-10 -9 -11 -8 -5 6 3 10 9 15 12 12 3 -3 0 -11 -7 -18z m7143 -23 c3 -8 2
-12 -4 -9 -6 3 -10 10 -10 16 0 14 7 11 14 -7z m-7213 -37 c-10 -9 -11 -8 -5
6 3 10 9 15 12 12 3 -3 0 -11 -7 -18z m-36 -27 c-3 -5 -12 -10 -18 -10 -7 0
-6 4 3 10 19 12 23 12 15 0z m7336 -17 c13 -16 12 -17 -3 -4 -17 13 -22 21
-14 21 2 0 10 -8 17 -17z m-7411 -48 c-7 -8 -17 -15 -23 -15 -6 0 -2 7 9 15
25 19 30 19 14 0z m7475 5 c3 -6 -1 -7 -9 -4 -18 7 -21 14 -7 14 6 0 13 -4 16
-10z m30 -40 c10 -11 16 -20 13 -20 -3 0 -13 9 -23 20 -10 11 -16 20 -13 20 3
0 13 -9 23 -20z m-7595 -44 c0 -2 -7 -7 -16 -10 -8 -3 -12 -2 -9 4 6 10 25 14
25 6z m-530 -30 c0 -2 -8 -10 -17 -17 -16 -13 -17 -12 -4 4 13 16 21 21 21 13z
m495 -6 c-3 -5 -12 -10 -18 -10 -7 0 -6 4 3 10 19 12 23 12 15 0z m7769 -49
c-2 -3 -12 3 -22 13 -16 17 -16 18 5 5 12 -7 20 -15 17 -18z m180 -20 c-5 -7
-24 11 -35 32 -11 20 -9 20 13 -3 13 -14 23 -27 22 -29z m-129 -29 c-3 -3 -11
0 -18 7 -9 10 -8 11 6 5 10 -3 15 -9 12 -12z m109 2 c3 -8 2 -12 -4 -9 -6 3
-10 10 -10 16 0 14 7 11 14 -7z m51 6 c3 -6 -1 -7 -9 -4 -18 7 -21 14 -7 14 6
0 13 -4 16 -10z m-8095 -24 c0 -2 -7 -7 -16 -10 -8 -3 -12 -2 -9 4 6 10 25 14
25 6z m7980 -22 c0 -2 -9 0 -20 6 -11 6 -20 13 -20 16 0 2 9 0 20 -6 11 -6 20
-13 20 -16z m109 -8 c-3 -3 -11 5 -18 17 -13 21 -12 21 5 5 10 -10 16 -20 13
-22z m-79 -21 c19 -22 8 -25 -12 -3 -10 10 -14 18 -9 18 5 0 14 -7 21 -15z
m174 -24 c-3 -3 -15 6 -27 18 l-22 24 27 -19 c14 -10 24 -21 22 -23z m-134
-26 c14 -19 14 -19 -2 -6 -10 7 -18 18 -18 24 0 6 1 8 3 6 1 -2 9 -13 17 -24z
m-8165 -14 c-3 -6 -16 -16 -28 -22 -20 -11 -20 -9 3 13 25 24 38 29 25 9z
m8315 -32 c15 -28 5 -23 -15 7 -9 15 -12 23 -6 20 6 -4 16 -16 21 -27z m55 3
c-3 -3 -11 0 -18 7 -9 10 -8 11 6 5 10 -3 15 -9 12 -12z m36 -39 c13 -16 12
-17 -3 -4 -17 13 -22 21 -14 21 2 0 10 -8 17 -17z m-32 -37 c-2 -2 -13 8 -23
22 l-19 27 24 -22 c12 -12 21 -24 18 -27z m-101 9 c12 -14 18 -25 13 -25 -5 0
-16 11 -25 25 -9 14 -15 25 -13 25 2 0 13 -11 25 -25z m177 -24 c-6 -5 -25 10
-25 20 0 5 6 4 14 -3 8 -7 12 -15 11 -17z m-8565 -5 c0 -2 -8 -10 -17 -17 -16
-13 -17 -12 -4 4 13 16 21 21 21 13z m8610 -32 c0 -2 -9 0 -20 6 -11 6 -20 13
-20 16 0 2 9 0 20 -6 11 -6 20 -13 20 -16z m-69 -1 c13 -17 13 -17 -6 -3 -11
8 -22 16 -24 17 -2 2 0 3 6 3 6 0 17 -8 24 -17z m-71 -33 c6 -11 8 -20 6 -20
-3 0 -10 9 -16 20 -6 11 -8 20 -6 20 3 0 10 -9 16 -20z m-8540 -4 c0 -2 -8
-10 -17 -17 -16 -13 -17 -12 -4 4 13 16 21 21 21 13z m8715 -14 c-3 -3 -11 0
-18 7 -9 10 -8 11 6 5 10 -3 15 -9 12 -12z m-55 -12 c6 -11 8 -20 6 -20 -3 0
-10 9 -16 20 -6 11 -8 20 -6 20 3 0 10 -9 16 -20z m81 -17 c13 -16 12 -17 -3
-4 -17 13 -22 21 -14 21 2 0 10 -8 17 -17z m-8771 3 c0 -2 -8 -10 -17 -17 -16
-13 -17 -12 -4 4 13 16 21 21 21 13z m8626 -18 l19 -23 -25 20 c-14 11 -27 21
-29 22 -2 2 0 3 6 3 5 0 18 -10 29 -22z m179 -28 c10 -11 16 -20 13 -20 -3 0
-13 9 -23 20 -10 11 -16 20 -13 20 3 0 13 -9 23 -20z m-144 -17 c13 -16 12
-17 -3 -4 -17 13 -22 21 -14 21 2 0 10 -8 17 -17z m-8731 -28 c-7 -8 -17 -15
-23 -15 -6 0 -2 7 9 15 25 19 30 19 14 0z m8770 -26 c15 -28 5 -23 -15 7 -9
15 -12 23 -6 20 6 -4 16 -16 21 -27z m78 6 c-3 -3 -9 2 -12 12 -6 14 -5 15 5
6 7 -7 10 -15 7 -18z m90 -10 c-3 -3 -9 2 -12 12 -6 14 -5 15 5 6 7 -7 10 -15
7 -18z m-47 -32 c13 -16 12 -17 -3 -4 -17 13 -22 21 -14 21 2 0 10 -8 17 -17z
m77 -8 c-3 -3 -9 2 -12 12 -6 14 -5 15 5 6 7 -7 10 -15 7 -18z m-43 -43 c-3
-3 -11 0 -18 7 -9 10 -8 11 6 5 10 -3 15 -9 12 -12z m-9025 -11 c-5 -11 -15
-23 -21 -27 -6 -3 -3 5 6 20 20 30 30 35 15 7z m8945 9 c3 -6 -1 -7 -9 -4 -18
7 -21 14 -7 14 6 0 13 -4 16 -10z m170 0 c3 -6 -1 -7 -9 -4 -18 7 -21 14 -7
14 6 0 13 -4 16 -10z m-145 -40 c6 -11 8 -20 6 -20 -3 0 -10 9 -16 20 -6 11
-8 20 -6 20 3 0 10 -9 16 -20z m38 -55 c-3 -3 -9 2 -12 12 -6 14 -5 15 5 6 7
-7 10 -15 7 -18z m83 8 c13 -16 12 -17 -3 -4 -17 13 -22 21 -14 21 2 0 10 -8
17 -17z m87 -8 c-3 -3 -9 2 -12 12 -6 14 -5 15 5 6 7 -7 10 -15 7 -18z m-3143
5 c3 -6 -1 -7 -9 -4 -18 7 -21 14 -7 14 6 0 13 -4 16 -10z m2999 -36 c3 -8 2
-12 -4 -9 -6 3 -10 10 -10 16 0 14 7 11 14 -7z m170 0 c3 -8 2 -12 -4 -9 -6 3
-10 10 -10 16 0 14 7 11 14 -7z m-6944 2 c0 -2 -8 -10 -17 -17 -16 -13 -17
-12 -4 4 13 16 21 21 21 13z m6865 -6 c3 -5 1 -10 -4 -10 -6 0 -11 5 -11 10 0
6 2 10 4 10 3 0 8 -4 11 -10z m-2960 -18 c-3 -3 -11 0 -18 7 -9 10 -8 11 6 5
10 -3 15 -9 12 -12z m2900 -22 c10 -11 16 -20 13 -20 -3 0 -13 9 -23 20 -10
11 -16 20 -13 20 3 0 13 -9 23 -20z m170 9 c11 -16 1 -19 -13 -3 -7 8 -8 14
-3 14 5 0 13 -5 16 -11z m-9369 -27 c-17 -16 -18 -16 -5 5 7 12 15 20 18 17 3
-2 -3 -12 -13 -22z m2324 24 c0 -2 -8 -10 -17 -17 -16 -13 -17 -12 -4 4 13 16
21 21 21 13z m7080 -51 c13 -14 21 -25 18 -25 -2 0 -15 11 -28 25 -13 14 -21
25 -18 25 2 0 15 -11 28 -25z m-2985 5 c3 -5 1 -10 -4 -10 -6 0 -11 5 -11 10
0 6 2 10 4 10 3 0 8 -4 11 -10z m2816 -7 c13 -16 12 -17 -3 -4 -17 13 -22 21
-14 21 2 0 10 -8 17 -17z m-9273 -27 c-7 -8 -15 -12 -17 -11 -5 6 10 25 20 25
5 0 4 -6 -3 -14z m6532 -32 c0 -3 -13 4 -30 16 -16 12 -30 24 -30 26 0 3 14
-4 30 -16 17 -12 30 -24 30 -26z m2795 -14 c3 -6 -1 -7 -9 -4 -18 7 -21 14 -7
14 6 0 13 -4 16 -10z m-9365 -14 c0 -3 -4 -8 -10 -11 -5 -3 -10 -1 -10 4 0 6
5 11 10 11 6 0 10 -2 10 -4z m9385 -16 c3 -6 -1 -7 -9 -4 -18 7 -21 14 -7 14
6 0 13 -4 16 -10z m79 -16 c3 -8 2 -12 -4 -9 -6 3 -10 10 -10 16 0 14 7 11 14
-7z m-7244 -12 c0 -5 -7 -17 -15 -28 -14 -18 -14 -17 -4 9 12 27 19 34 19 19z
m7364 -18 c3 -8 2 -12 -4 -9 -6 3 -10 10 -10 16 0 14 7 11 14 -7z m-85 -28
c-3 -3 -11 5 -18 17 -13 21 -12 21 5 5 10 -10 16 -20 13 -22z m-9554 4 c-3 -5
-12 -10 -18 -10 -7 0 -6 4 3 10 19 12 23 12 15 0z m6710 -20 c3 -5 1 -10 -4
-10 -6 0 -11 5 -11 10 0 6 2 10 4 10 3 0 8 -4 11 -10z m1070 -20 c3 -6 -1 -7
-9 -4 -18 7 -21 14 -7 14 6 0 13 -4 16 -10z m1799 -6 c3 -8 2 -12 -4 -9 -6 3
-10 10 -10 16 0 14 7 11 14 -7z m106 6 c0 -5 -2 -10 -4 -10 -3 0 -8 5 -11 10
-3 6 -1 10 4 10 6 0 11 -4 11 -10z m-79 -47 c13 -16 12 -17 -3 -4 -17 13 -22
21 -14 21 2 0 10 -8 17 -17z m-60 -20 c13 -16 12 -17 -3 -4 -17 13 -22 21 -14
21 2 0 10 -8 17 -17z m-1576 -21 c-3 -3 -11 0 -18 7 -9 10 -8 11 6 5 10 -3 15
-9 12 -12z m1670 -12 c3 -5 1 -10 -4 -10 -6 0 -11 5 -11 10 0 6 2 10 4 10 3 0
8 -4 11 -10z m126 -27 c13 -16 12 -17 -3 -4 -17 13 -22 21 -14 21 2 0 10 -8
17 -17z m-151 -54 c15 -28 5 -23 -15 7 -9 15 -12 23 -6 20 6 -4 16 -16 21 -27z
m-9750 7 c0 -2 -8 -10 -17 -17 -16 -13 -17 -12 -4 4 13 16 21 21 21 13z m8320
-52 c0 -2 -9 0 -20 6 -11 6 -20 13 -20 16 0 2 9 0 20 -6 11 -6 20 -13 20 -16z
m1644 -10 c3 -8 2 -12 -4 -9 -6 3 -10 10 -10 16 0 14 7 11 14 -7z m-96 -49
c-3 -3 -9 2 -12 12 -6 14 -5 15 5 6 7 -7 10 -15 7 -18z m136 -21 c3 -8 2 -12
-4 -9 -6 3 -10 10 -10 16 0 14 7 11 14 -7z m-10096 -35 c-6 -16 -12 -28 -14
-26 -5 5 13 57 20 57 3 0 0 -14 -6 -31z m9933 4 c13 -16 12 -17 -3 -4 -10 7
-18 15 -18 17 0 8 8 3 21 -13z m69 -28 c0 -5 -5 -3 -10 5 -5 8 -10 20 -10 25
0 6 5 3 10 -5 5 -8 10 -19 10 -25z m-1406 -75 c6 -9 1 -5 -11 8 -13 13 -23 28
-23 35 0 7 6 3 12 -8 6 -11 16 -27 22 -35z m1440 14 c3 -8 2 -12 -4 -9 -6 3
-10 10 -10 16 0 14 7 11 14 -7z m-10121 -74 c-3 -11 -10 -23 -16 -27 -5 -3 -8
-2 -5 3 3 5 8 17 11 27 9 24 16 22 10 -3z m8741 -46 c3 -8 2 -12 -4 -9 -6 3
-10 10 -10 16 0 14 7 11 14 -7z m1506 -159 c0 -5 -5 -3 -10 5 -5 8 -10 20 -10
25 0 6 5 3 10 -5 5 -8 10 -19 10 -25z m-10359 -28 c-10 -9 -11 -8 -5 6 3 10 9
15 12 12 3 -3 0 -11 -7 -18z m10397 -72 c-3 -3 -9 2 -12 12 -6 14 -5 15 5 6 7
-7 10 -15 7 -18z m-14 -61 c3 -8 2 -12 -4 -9 -6 3 -10 10 -10 16 0 14 7 11 14
-7z m-10523 -207 c-10 -9 -11 -8 -5 6 3 10 9 15 12 12 3 -3 0 -11 -7 -18z
m10663 -153 c3 -8 2 -12 -4 -9 -6 3 -10 10 -10 16 0 14 7 11 14 -7z m-1684
-73 c-5 -11 -15 -23 -21 -27 -6 -3 -3 5 6 20 20 30 30 35 15 7z m1708 -12 c-3
-8 -7 -3 -11 10 -4 17 -3 21 5 13 5 -5 8 -16 6 -23z m-7814 -75 c3 -8 2 -12
-4 -9 -6 3 -10 10 -10 16 0 14 7 11 14 -7z m-2991 -29 c-3 -9 -8 -14 -10 -11
-3 3 -2 9 2 15 9 16 15 13 8 -4z m9027 1 c0 -2 -7 -7 -16 -10 -8 -3 -12 -2 -9
4 6 10 25 14 25 6z m-47 -50 c-10 -13 -20 -22 -22 -20 -4 4 29 44 36 44 2 0
-4 -11 -14 -24z m-5943 -36 c0 -5 -2 -10 -4 -10 -3 0 -8 5 -11 10 -3 6 -1 10
4 10 6 0 11 -4 11 -10z m5885 -30 c-10 -11 -21 -18 -23 -15 -3 3 3 12 14 20
27 20 30 18 9 -5z m-75 -54 c0 -2 -8 -10 -17 -17 -16 -13 -17 -12 -4 4 13 16
21 21 21 13z m-5759 -33 c13 -16 12 -17 -3 -4 -10 7 -18 15 -18 17 0 8 8 3 21
-13z m7820 -16 c-10 -9 -11 -8 -5 6 3 10 9 15 12 12 3 -3 0 -11 -7 -18z
m-2118 -2 c-3 -9 -8 -14 -10 -11 -3 3 -2 9 2 15 9 16 15 13 8 -4z m-5675 -40
c-3 -3 -9 2 -12 12 -6 14 -5 15 5 6 7 -7 10 -15 7 -18z m5652 21 c0 -2 -8 -10
-17 -17 -16 -13 -17 -12 -4 4 13 16 21 21 21 13z m2144 -12 c3 -8 2 -12 -4 -9
-6 3 -10 10 -10 16 0 14 7 11 14 -7z m-2229 -44 c-3 -5 -12 -10 -18 -10 -7 0
-6 4 3 10 19 12 23 12 15 0z m2250 -12 c-3 -12 0 -27 5 -33 5 -6 5 -16 -2 -25
-8 -12 -9 -12 -4 2 3 10 1 20 -4 23 -5 3 -8 16 -6 28 6 28 5 27 10 27 3 0 3
-10 1 -22z m-7776 -22 c-3 -3 -11 5 -18 17 -13 21 -12 21 5 5 10 -10 16 -20
13 -22z m4166 14 c3 -6 -1 -7 -9 -4 -18 7 -21 14 -7 14 6 0 13 -4 16 -10z m60
-30 c3 -6 -1 -7 -9 -4 -18 7 -21 14 -7 14 6 0 13 -4 16 -10z m-254 -43 c-10
-9 -11 -8 -5 6 3 10 9 15 12 12 3 -3 0 -11 -7 -18z m3826 6 c-4 -3 -1 -13 6
-22 11 -14 10 -14 -5 -2 -16 12 -16 31 -1 31 4 0 3 -3 0 -7z m-3854 -58 c-3
-9 -8 -14 -10 -11 -3 3 -2 9 2 15 9 16 15 13 8 -4z m544 9 c-3 -3 -12 -4 -19
-1 -8 3 -5 6 6 6 11 1 17 -2 13 -5z m3316 -9 c-3 -9 -8 -14 -10 -11 -3 3 -2 9
2 15 9 16 15 13 8 -4z m17 -29 c0 -3 -4 -8 -10 -11 -5 -3 -10 -1 -10 4 0 6 5
11 10 11 6 0 10 -2 10 -4z m5 -55 c3 -5 2 -12 -3 -15 -5 -3 -9 1 -9 9 0 17 3
19 12 6z m11 -71 c3 -31 2 -32 -7 -12 -5 13 -7 28 -4 32 3 5 0 11 -5 13 -6 3
-5 5 1 3 7 -1 13 -17 15 -36z m-3241 -28 c-3 -3 -11 0 -18 7 -9 10 -8 11 6 5
10 -3 15 -9 12 -12z m3255 -47 c0 -5 -5 -3 -10 5 -5 8 -10 20 -10 25 0 6 5 3
10 -5 5 -8 10 -19 10 -25z m-8670 -49 c0 -2 -7 -7 -16 -10 -8 -3 -12 -2 -9 4
6 10 25 14 25 6z m8680 -6 c0 -5 -2 -10 -4 -10 -3 0 -8 5 -11 10 -3 6 -1 10 4
10 6 0 11 -4 11 -10z m-8750 -20 c-8 -5 -19 -10 -25 -10 -5 0 -3 5 5 10 8 5
20 10 25 10 6 0 3 -5 -5 -10z m-175 -70 c-3 -5 -12 -10 -18 -10 -7 0 -6 4 3
10 19 12 23 12 15 0z m6320 -18 c-3 -3 -11 0 -18 7 -9 10 -8 11 6 5 10 -3 15
-9 12 -12z m-6495 -66 c0 -2 -8 -10 -17 -17 -16 -13 -17 -12 -4 4 13 16 21 21
21 13z m-47 -41 c-3 -9 -8 -14 -10 -11 -3 3 -2 9 2 15 9 16 15 13 8 -4z
m-2076 -17 c-3 -8 -6 -5 -6 6 -1 11 2 17 5 13 3 -3 4 -12 1 -19z m2001 -52
c-7 -8 -15 -12 -17 -11 -5 6 10 25 20 25 5 0 4 -6 -3 -14z m6937 -26 c3 -6 -1
-7 -9 -4 -18 7 -21 14 -7 14 6 0 13 -4 16 -10z m40 -60 c10 -11 16 -20 13 -20
-3 0 -13 9 -23 20 -10 11 -16 20 -13 20 3 0 13 -9 23 -20z m7 -309 c-9 -16
-18 -28 -21 -26 -4 5 27 55 34 55 2 0 -4 -13 -13 -29z m-6958 -127 c3 -8 2
-12 -4 -9 -6 3 -10 10 -10 16 0 14 7 11 14 -7z m37 -31 c13 -16 12 -17 -3 -4
-10 7 -18 15 -18 17 0 8 8 3 21 -13z m50 -30 c13 -17 13 -17 -6 -3 -11 8 -22
16 -24 17 -2 2 0 3 6 3 6 0 17 -8 24 -17z m6639 -17 c0 -2 -7 -7 -16 -10 -8
-3 -12 -2 -9 4 6 10 25 14 25 6z m-6055 -216 c3 -6 -1 -7 -9 -4 -18 7 -21 14
-7 14 6 0 13 -4 16 -10z m4783 -210 c-7 -10 -14 -17 -17 -15 -4 4 18 35 25 35
2 0 -1 -9 -8 -20z m-4228 -25 c7 -9 8 -15 2 -15 -5 0 -12 7 -16 15 -3 8 -4 15
-2 15 2 0 9 -7 16 -15z m4188 -29 c-7 -8 -15 -12 -17 -11 -5 6 10 25 20 25 5
0 4 -6 -3 -14z m-3993 -116 c3 -6 -1 -7 -9 -4 -18 7 -21 14 -7 14 6 0 13 -4
16 -10z m3700 -50 c-3 -5 -12 -10 -18 -10 -7 0 -6 4 3 10 19 12 23 12 15 0z
m4112 -20 c-5 -29 -13 -33 -13 -5 0 14 4 25 8 25 4 0 7 -9 5 -20z m-11 -70
c-1 -16 -5 -32 -8 -35 -2 -3 -4 7 -2 22 3 41 4 43 8 43 3 0 3 -13 2 -30z m-11
-78 c2 -12 1 -24 -3 -26 -4 -2 -8 9 -8 25 -2 33 4 33 11 1z m-10 -82 c1 -16
-1 -27 -4 -24 -3 3 -6 19 -7 35 -1 16 1 27 4 24 3 -3 6 -19 7 -35z m-9 -66 c1
-9 0 -13 -4 -10 -3 4 -7 14 -8 22 -1 9 0 13 4 10 3 -4 7 -14 8 -22z m-13 -44
c3 -11 1 -18 -4 -14 -5 3 -9 12 -9 20 0 20 7 17 13 -6z m-3 -106 c0 -8 -19
-13 -24 -6 -3 5 1 9 9 9 8 0 15 -2 15 -3z m-139 -557 c-10 -9 -11 -8 -5 6 3
10 9 15 12 12 3 -3 0 -11 -7 -18z m-38 -42 c-3 -9 -8 -14 -10 -11 -3 3 -2 9 2
15 9 16 15 13 8 -4z m-3516 -21 c-3 -3 -12 -4 -19 -1 -8 3 -5 6 6 6 11 1 17
-2 13 -5z m3526 -49 c-3 -9 -8 -14 -10 -11 -3 3 -2 9 2 15 9 16 15 13 8 -4z
m-40 -10 c-3 -9 -8 -14 -10 -11 -3 3 -2 9 2 15 9 16 15 13 8 -4z m-10 -40 c-3
-9 -8 -14 -10 -11 -3 3 -2 9 2 15 9 16 15 13 8 -4z m-2853 -5 c8 -5 11 -10 5
-10 -5 0 -17 5 -25 10 -8 5 -10 10 -5 10 6 0 17 -5 25 -10z m-1020 -5 c0 -2
-10 -9 -22 -15 -22 -11 -22 -10 -4 4 21 17 26 19 26 11z m-2785 -35 c10 -11
16 -20 13 -20 -3 0 -13 9 -23 20 -10 11 -16 20 -13 20 3 0 13 -9 23 -20z
m-4048 -12 c-3 -8 -6 -5 -6 6 -1 11 2 17 5 13 3 -3 4 -12 1 -19z m6783 18 c0
-2 -8 -10 -17 -17 -16 -13 -17 -12 -4 4 13 16 21 21 21 13z m1135 -6 c3 -6 -1
-7 -9 -4 -18 7 -21 14 -7 14 6 0 13 -4 16 -10z m2756 -33 c-10 -9 -11 -8 -5 6
3 10 9 15 12 12 3 -3 0 -11 -7 -18z m-3931 9 c0 -2 -8 -10 -17 -17 -16 -13
-17 -12 -4 4 13 16 21 21 21 13z m1215 -14 c-3 -3 -11 0 -18 7 -9 10 -8 11 6
5 10 -3 15 -9 12 -12z m-1846 -26 c-3 -3 -11 5 -18 17 -13 21 -12 21 5 5 10
-10 16 -20 13 -22z m4642 -9 c-10 -9 -11 -8 -5 6 3 10 9 15 12 12 3 -3 0 -11
-7 -18z m-6620 -14 c13 -16 12 -17 -3 -4 -10 7 -18 15 -18 17 0 8 8 3 21 -13z
m3929 -53 c0 -5 -2 -10 -4 -10 -3 0 -8 5 -11 10 -3 6 -1 10 4 10 6 0 11 -4 11
-10z m-8002 -25 c-3 -3 -9 2 -12 12 -6 14 -5 15 5 6 7 -7 10 -15 7 -18z m6522
-55 c0 -5 -5 -10 -11 -10 -5 0 -7 5 -4 10 3 6 8 10 11 10 2 0 4 -4 4 -10z
m640 -64 c0 -2 -9 -6 -20 -9 -11 -3 -18 -1 -14 4 5 9 34 13 34 5z m3383 -41
c-3 -9 -8 -14 -10 -11 -3 3 -2 9 2 15 9 16 15 13 8 -4z m-3023 -20 c14 -19 14
-19 -2 -6 -10 7 -18 18 -18 24 0 6 1 8 3 6 1 -2 9 -13 17 -24z m3073 10 c-3
-9 -8 -14 -10 -11 -3 3 -2 9 2 15 9 16 15 13 8 -4z m-3553 -35 c-6 -11 -13
-20 -16 -20 -2 0 0 9 6 20 6 11 13 20 16 20 2 0 0 -9 -6 -20z m515 -10 c3 -5
1 -10 -4 -10 -6 0 -11 5 -11 10 0 6 2 10 4 10 3 0 8 -4 11 -10z m3015 -10 c-6
-11 -13 -20 -16 -20 -2 0 0 9 6 20 6 11 13 20 16 20 2 0 0 -9 -6 -20z m-10472
-25 c-3 -3 -9 2 -12 12 -6 14 -5 15 5 6 7 -7 10 -15 7 -18z m10395 -40 c-3 -9
-8 -14 -10 -11 -3 3 -2 9 2 15 9 16 15 13 8 -4z m18 -58 c-10 -9 -11 -8 -5 6
3 10 9 15 12 12 3 -3 0 -11 -7 -18z m-2914 -9 c-3 -8 -6 -5 -6 6 -1 11 2 17 5
13 3 -3 4 -12 1 -19z m-1517 -18 c0 -5 -5 -10 -11 -10 -5 0 -7 5 -4 10 3 6 8
10 11 10 2 0 4 -4 4 -10z m327 -22 c-3 -8 -6 -5 -6 6 -1 11 2 17 5 13 3 -3 4
-12 1 -19z m4093 8 c0 -3 -4 -8 -10 -11 -5 -3 -10 -1 -10 4 0 6 5 11 10 11 6
0 10 -2 10 -4z m-110 -30 c0 -2 -8 -10 -17 -17 -16 -13 -17 -12 -4 4 13 16 21
21 21 13z m83 -11 c-3 -9 -8 -14 -10 -11 -3 3 -2 9 2 15 9 16 15 13 8 -4z
m-4443 -10 c-7 -8 -17 -15 -23 -15 -6 0 -2 7 9 15 25 19 30 19 14 0z m-5801
-79 c-3 -3 -11 5 -18 17 -13 21 -12 21 5 5 10 -10 16 -20 13 -22z m10164 9
c-3 -9 -8 -14 -10 -11 -3 3 -2 9 2 15 9 16 15 13 8 -4z m-53 -9 c0 -2 -8 -10
-17 -17 -16 -13 -17 -12 -4 4 13 16 21 21 21 13z m30 -36 c-6 -11 -13 -20 -16
-20 -2 0 0 9 6 20 6 11 13 20 16 20 2 0 0 -9 -6 -20z m28 -30 c-7 -10 -14 -17
-17 -15 -4 4 18 35 25 35 2 0 -1 -9 -8 -20z m-6349 -3 c-2 -1 -13 -9 -24 -17
-19 -14 -19 -14 -6 3 7 9 18 17 24 17 6 0 8 -1 6 -3z m1912 -14 c13 -16 12
-17 -3 -4 -10 7 -18 15 -18 17 0 8 8 3 21 -13z m4380 -16 c-10 -9 -11 -8 -5 6
3 10 9 15 12 12 3 -3 0 -11 -7 -18z m-6346 -17 c-3 -5 -12 -10 -18 -10 -7 0
-6 4 3 10 19 12 23 12 15 0z m2036 -7 c13 -16 12 -17 -3 -4 -10 7 -18 15 -18
17 0 8 8 3 21 -13z m4339 -7 c0 -2 -8 -10 -17 -17 -16 -13 -17 -12 -4 4 13 16
21 21 21 13z m-4299 -33 c13 -16 12 -17 -3 -4 -10 7 -18 15 -18 17 0 8 8 3 21
-13z m-2171 -13 c0 -5 -5 -10 -11 -10 -5 0 -7 5 -4 10 3 6 8 10 11 10 2 0 4
-4 4 -10z m6410 6 c0 -2 -8 -10 -17 -17 -16 -13 -17 -12 -4 4 13 16 21 21 21
13z m-77 -26 c-3 -12 -8 -19 -11 -16 -5 6 5 36 12 36 2 0 2 -9 -1 -20z m88
-13 c-10 -9 -11 -8 -5 6 3 10 9 15 12 12 3 -3 0 -11 -7 -18z m-6471 -22 c14
-19 14 -19 -2 -6 -10 7 -18 18 -18 24 0 6 1 8 3 6 1 -2 9 -13 17 -24z m2268 0
c-3 -3 -9 2 -12 12 -6 14 -5 15 5 6 7 -7 10 -15 7 -18z m4082 -25 c0 -5 -5
-10 -11 -10 -5 0 -7 5 -4 10 3 6 8 10 11 10 2 0 4 -4 4 -10z m-9816 -26 c3 -8
2 -12 -4 -9 -6 3 -10 10 -10 16 0 14 7 11 14 -7z m5760 0 c3 -8 2 -12 -4 -9
-6 3 -10 10 -10 16 0 14 7 11 14 -7z m4096 -14 c0 -5 -5 -10 -11 -10 -5 0 -7
5 -4 10 3 6 8 10 11 10 2 0 4 -4 4 -10z m-6346 -16 c3 -8 2 -12 -4 -9 -6 3
-10 10 -10 16 0 14 7 11 14 -7z m-3484 -14 c6 -11 8 -20 6 -20 -3 0 -10 9 -16
20 -6 11 -8 20 -6 20 3 0 10 -9 16 -20z m9738 -20 c-7 -10 -14 -17 -17 -15 -4
4 18 35 25 35 2 0 -1 -9 -8 -20z m78 -28 c-17 -16 -18 -16 -5 5 7 12 15 20 18
17 3 -2 -3 -12 -13 -22z m-26 4 c0 -3 -4 -8 -10 -11 -5 -3 -10 -1 -10 4 0 6 5
11 10 11 6 0 10 -2 10 -4z m-9746 -32 c3 -8 2 -12 -4 -9 -6 3 -10 10 -10 16 0
14 7 11 14 -7z m2896 -4 c6 -11 8 -20 6 -20 -3 0 -10 9 -16 20 -6 11 -8 20 -6
20 3 0 10 -9 16 -20z m6770 6 c0 -3 -4 -8 -10 -11 -5 -3 -10 -1 -10 4 0 6 5
11 10 11 6 0 10 -2 10 -4z m-9639 -43 c13 -16 12 -17 -3 -4 -17 13 -22 21 -14
21 2 0 10 -8 17 -17z m5979 -18 c0 -5 -5 -3 -10 5 -5 8 -10 20 -10 25 0 6 5 3
10 -5 5 -8 10 -19 10 -25z m1110 31 c0 -2 -8 -10 -17 -17 -16 -13 -17 -12 -4
4 13 16 21 21 21 13z m2530 0 c0 -2 -8 -10 -17 -17 -16 -13 -17 -12 -4 4 13
16 21 21 21 13z m-6126 -32 c3 -8 2 -12 -4 -9 -6 3 -10 10 -10 16 0 14 7 11
14 -7z m-586 -29 c-3 -3 -9 2 -12 12 -6 14 -5 15 5 6 7 -7 10 -15 7 -18z
m4147 15 c-3 -5 -16 -15 -28 -21 -19 -9 -19 -8 3 10 28 23 34 26 25 11z
m-3540 -20 c3 -5 1 -10 -4 -10 -6 0 -11 5 -11 10 0 6 2 10 4 10 3 0 8 -4 11
-10z m3130 -20 c3 -6 -1 -7 -9 -4 -18 7 -21 14 -7 14 6 0 13 -4 16 -10z
m-6576 -44 c-3 -3 -11 5 -18 17 -13 21 -12 21 5 5 10 -10 16 -20 13 -22z
m3466 24 c3 -5 1 -10 -4 -10 -6 0 -11 5 -11 10 0 6 2 10 4 10 3 0 8 -4 11 -10z
m6015 -3 c0 -2 -10 -12 -22 -23 l-23 -19 19 23 c18 21 26 27 26 19z m-6599
-34 c13 -16 12 -17 -3 -4 -10 7 -18 15 -18 17 0 8 8 3 21 -13z m4629 -17 c0
-3 -4 -8 -10 -11 -5 -3 -10 -1 -10 4 0 6 5 11 10 11 6 0 10 -2 10 -4z m-7460
-51 c0 -5 -5 -3 -10 5 -5 8 -10 20 -10 25 0 6 5 3 10 -5 5 -8 10 -19 10 -25z
m2855 25 c3 -5 1 -10 -4 -10 -6 0 -11 5 -11 10 0 6 2 10 4 10 3 0 8 -4 11 -10z
m3080 0 c3 -5 1 -10 -4 -10 -6 0 -11 5 -11 10 0 6 2 10 4 10 3 0 8 -4 11 -10z
m-2451 -56 c3 -8 2 -12 -4 -9 -6 3 -10 10 -10 16 0 14 7 11 14 -7z m2036 -24
c0 -5 -5 -10 -11 -10 -5 0 -7 5 -4 10 3 6 8 10 11 10 2 0 4 -4 4 -10z m1861
-13 c-10 -9 -11 -8 -5 6 3 10 9 15 12 12 3 -3 0 -11 -7 -18z m1920 -20 c-10
-9 -11 -8 -5 6 3 10 9 15 12 12 3 -3 0 -11 -7 -18z m-1976 -37 c-10 -11 -20
-18 -22 -16 -6 5 30 44 36 39 2 -1 -4 -12 -14 -23z m-4387 -35 c-3 -3 -9 2
-12 12 -6 14 -5 15 5 6 7 -7 10 -15 7 -18z m-2817 -2 c13 -16 12 -17 -3 -4
-17 13 -22 21 -14 21 2 0 10 -8 17 -17z m9139 13 c0 -3 -4 -8 -10 -11 -5 -3
-10 -1 -10 4 0 6 5 11 10 11 6 0 10 -2 10 -4z m-3139 -23 c13 -16 12 -17 -3
-4 -10 7 -18 15 -18 17 0 8 8 3 21 -13z m-706 -3 c-3 -5 -12 -10 -18 -10 -7 0
-6 4 3 10 19 12 23 12 15 0z m3815 -14 c0 -3 -4 -8 -10 -11 -5 -3 -10 -1 -10
4 0 6 5 11 10 11 6 0 10 -2 10 -4z m-5642 -41 c-3 -3 -9 2 -12 12 -6 14 -5 15
5 6 7 -7 10 -15 7 -18z m1772 21 c0 -2 -8 -10 -17 -17 -16 -13 -17 -12 -4 4
13 16 21 21 21 13z m3830 -30 c0 -2 -8 -10 -17 -17 -16 -13 -17 -12 -4 4 13
16 21 21 21 13z m-2905 -16 c3 -6 -1 -7 -9 -4 -18 7 -21 14 -7 14 6 0 13 -4
16 -10z m835 6 c0 -2 -7 -7 -16 -10 -8 -3 -12 -2 -9 4 6 10 25 14 25 6z
m-6901 -50 c-2 -2 -13 8 -23 22 l-19 27 24 -22 c12 -12 21 -24 18 -27z m4978
18 c-3 -3 -12 -4 -19 -1 -8 3 -5 6 6 6 11 1 17 -2 13 -5z m3943 -28 c0 -2 -7
-7 -16 -10 -8 -3 -12 -2 -9 4 6 10 25 14 25 6z m-47 -54 c-10 -10 -20 -17 -22
-16 -6 5 20 34 30 34 5 0 1 -8 -8 -18z m-8802 -19 c13 -16 12 -17 -3 -4 -17
13 -22 21 -14 21 2 0 10 -8 17 -17z m8740 -56 c-10 -9 -11 -8 -5 6 3 10 9 15
12 12 3 -3 0 -11 -7 -18z m-8677 -21 c14 -19 26 -38 26 -42 0 -4 -11 7 -25 26
-14 19 -31 37 -37 42 -9 5 -9 8 -2 8 7 0 23 -15 38 -34z m8634 -26 c-7 -10
-14 -17 -17 -15 -4 4 18 35 25 35 2 0 -1 -9 -8 -20z m-35 -45 c-3 -9 -8 -14
-10 -11 -3 3 -2 9 2 15 9 16 15 13 8 -4z m-8514 -39 c-3 -3 -11 5 -18 17 -13
21 -12 21 5 5 10 -10 16 -20 13 -22z m42 -43 c13 -16 12 -17 -3 -4 -10 7 -18
15 -18 17 0 8 8 3 21 -13z m8391 -15 c-7 -7 -12 -8 -12 -2 0 14 12 26 19 19 2
-3 -1 -11 -7 -17z m-8347 -34 c9 -15 12 -23 6 -20 -11 7 -35 46 -28 46 3 0 12
-12 22 -26z m8285 -27 c0 -2 -10 -12 -22 -23 l-23 -19 19 23 c18 21 26 27 26
19z m-87 -91 c-10 -13 -20 -22 -22 -20 -4 4 29 44 36 44 2 0 -4 -11 -14 -24z
m-8033 -52 c0 -2 -9 0 -20 6 -11 6 -20 13 -20 16 0 2 9 0 20 -6 11 -6 20 -13
20 -16z m7986 -2 c-17 -16 -18 -16 -5 5 7 12 15 20 18 17 3 -2 -3 -12 -13 -22z
m-7961 -23 c11 -16 1 -19 -13 -3 -7 8 -8 14 -3 14 5 0 13 -5 16 -11z m7916
-22 l-24 -22 19 27 c10 14 21 24 23 22 3 -3 -6 -15 -18 -27z m-51 -41 c0 -2
-8 -10 -17 -17 -16 -13 -17 -12 -4 4 13 16 21 21 21 13z m-7775 -26 c10 -11
16 -20 13 -20 -3 0 -13 9 -23 20 -10 11 -16 20 -13 20 3 0 13 -9 23 -20z
m7716 -43 c-10 -9 -11 -8 -5 6 3 10 9 15 12 12 3 -3 0 -11 -7 -18z m-7601 -65
c0 -1 -9 2 -20 8 -11 6 -20 15 -20 20 0 6 9 2 20 -7 11 -10 20 -19 20 -21z
m7518 -2 c-7 -10 -14 -17 -17 -15 -4 4 18 35 25 35 2 0 -1 -9 -8 -20z m-7464
-46 c3 -8 2 -12 -4 -9 -6 3 -10 10 -10 16 0 14 7 11 14 -7z m7406 -10 c-8 -8
-23 -20 -34 -25 -13 -7 -9 -1 9 15 34 29 43 33 25 10z m-7369 -21 c13 -16 12
-17 -3 -4 -10 7 -18 15 -18 17 0 8 8 3 21 -13z m64 -53 c10 -11 16 -20 13 -20
-3 0 -13 9 -23 20 -10 11 -16 20 -13 20 3 0 13 -9 23 -20z m7230 10 c-3 -5
-12 -10 -18 -10 -7 0 -6 4 3 10 19 12 23 12 15 0z m-7170 -60 c3 -5 1 -10 -4
-10 -6 0 -11 5 -11 10 0 6 2 10 4 10 3 0 8 -4 11 -10z m7041 -48 c-17 -16 -18
-16 -5 5 7 12 15 20 18 17 3 -2 -3 -12 -13 -22z m-6985 1 c13 -16 12 -17 -3
-4 -17 13 -22 21 -14 21 2 0 10 -8 17 -17z m44 -33 c3 -6 -1 -7 -9 -4 -18 7
-21 14 -7 14 6 0 13 -4 16 -10z m6895 7 c0 -2 -10 -12 -22 -23 l-23 -19 19 23
c18 21 26 27 26 19z m-6859 -34 c13 -16 12 -17 -3 -4 -17 13 -22 21 -14 21 2
0 10 -8 17 -17z m39 -28 c7 -9 8 -15 2 -15 -5 0 -12 7 -16 15 -3 8 -4 15 -2
15 2 0 9 -7 16 -15z m6709 -28 c-2 -1 -13 -9 -24 -17 -19 -14 -19 -14 -6 3 7
9 18 17 24 17 6 0 8 -1 6 -3z m-6654 -17 c3 -6 -1 -7 -9 -4 -18 7 -21 14 -7
14 6 0 13 -4 16 -10z m70 -50 c3 -6 -1 -7 -9 -4 -18 7 -21 14 -7 14 6 0 13 -4
16 -10z m46 -37 c13 -17 13 -17 -6 -3 -11 8 -22 16 -24 17 -2 2 0 3 6 3 6 0
17 -8 24 -17z m6384 -13 c-3 -5 -12 -10 -18 -10 -7 0 -6 4 3 10 19 12 23 12
15 0z m-6331 -29 c-2 -3 -12 3 -22 13 -16 17 -16 18 5 5 12 -7 20 -15 17 -18z
m121 -71 c3 -5 1 -10 -4 -10 -6 0 -11 5 -11 10 0 6 2 10 4 10 3 0 8 -4 11 -10z
m6015 -24 c0 -2 -8 -10 -17 -17 -16 -13 -17 -12 -4 4 13 16 21 21 21 13z
m-5949 -23 c13 -16 12 -17 -3 -4 -17 13 -22 21 -14 21 2 0 10 -8 17 -17z m125
-74 c3 -6 -5 -3 -20 6 -14 10 -26 19 -26 22 0 7 39 -17 46 -28z m5714 26 c0
-2 -10 -9 -22 -15 -22 -11 -22 -10 -4 4 21 17 26 19 26 11z m-5675 -45 c3 -6
-1 -7 -9 -4 -18 7 -21 14 -7 14 6 0 13 -4 16 -10z m5600 0 c-3 -5 -12 -10 -18
-10 -7 0 -6 4 3 10 19 12 23 12 15 0z m-5440 -98 c-3 -3 -11 0 -18 7 -9 10 -8
11 6 5 10 -3 15 -9 12 -12z m56 -29 c13 -16 12 -17 -3 -4 -17 13 -22 21 -14
21 2 0 10 -8 17 -17z m5054 -53 c-3 -5 -12 -10 -18 -10 -7 0 -6 4 3 10 19 12
23 12 15 0z m-4834 -57 c13 -16 12 -17 -3 -4 -17 13 -22 21 -14 21 2 0 10 -8
17 -17z m4689 -7 c0 -2 -8 -10 -17 -17 -16 -13 -17 -12 -4 4 13 16 21 21 21
13z m-90 -50 c0 -2 -7 -7 -16 -10 -8 -3 -12 -2 -9 4 6 10 25 14 25 6z m-4385
-36 c3 -6 -1 -7 -9 -4 -18 7 -21 14 -7 14 6 0 13 -4 16 -10z m4165 -54 c0 -2
-7 -7 -16 -10 -8 -3 -12 -2 -9 4 6 10 25 14 25 6z m-3843 -72 c-3 -3 -12 -4
-19 -1 -8 3 -5 6 6 6 11 1 17 -2 13 -5z m348 -114 c3 -6 -1 -7 -9 -4 -18 7
-21 14 -7 14 6 0 13 -4 16 -10z m2962 4 c-3 -3 -12 -4 -19 -1 -8 3 -5 6 6 6
11 1 17 -2 13 -5z m-2610 -90 c-3 -3 -12 -4 -19 -1 -8 3 -5 6 6 6 11 1 17 -2
13 -5z"/>
<path d="M5550 13190 c0 -5 5 -10 10 -10 6 0 10 5 10 10 0 6 -4 10 -10 10 -5
0 -10 -4 -10 -10z"/>
<path d="M5508 13183 c-10 -2 -18 -8 -18 -13 0 -10 38 -1 46 11 5 9 1 10 -28
2z"/>
<path d="M5400 13143 c-36 -13 -69 -29 -75 -34 -12 -12 135 40 150 53 14 13
-3 8 -75 -19z"/>
<path d="M5280 13094 l-25 -15 25 7 c28 7 35 12 29 18 -2 2 -15 -2 -29 -10z"/>
<path d="M5195 13059 c-22 -10 -29 -16 -15 -13 28 7 80 33 65 33 -5 0 -28 -9
-50 -20z"/>
<path d="M5110 13025 c-14 -8 -20 -14 -15 -14 6 0 21 6 35 14 14 8 21 14 15
14 -5 0 -21 -6 -35 -14z"/>
<path d="M4124 12478 l-19 -23 23 19 c21 18 27 26 19 26 -2 0 -12 -10 -23 -22z"/>
<path d="M4015 12404 l-30 -26 33 22 c17 12 32 23 32 26 0 7 -4 5 -35 -22z"/>
<path d="M3910 12330 c-89 -68 -108 -83 -125 -97 -7 -7 -18 -13 -24 -13 -5 0
-14 -6 -18 -13 -4 -7 -21 -20 -36 -30 -15 -10 -25 -22 -22 -28 7 -11 74 42 68
54 -2 4 1 7 7 7 12 0 220 157 220 166 0 7 -2 5 -70 -46z"/>
<path d="M11354 2920 c-5 -9 -38 -39 -74 -69 -36 -29 -66 -57 -68 -62 -2 -5
-8 -9 -13 -9 -6 0 -21 -10 -34 -22 -30 -28 -33 -31 -122 -97 -40 -30 -73 -56
-73 -58 0 -4 79 49 110 73 8 7 74 58 145 115 159 124 148 115 143 130 -4 11
-7 10 -14 -1z"/>
<path d="M10939 2583 c-13 -16 -12 -17 4 -4 16 13 21 21 13 21 -2 0 -10 -8
-17 -17z"/>
<path d="M10889 2549 l-24 -20 28 17 c15 9 27 18 27 20 0 8 -8 4 -31 -17z"/>
<path d="M9590 1870 c-18 -12 -2 -12 25 0 13 6 15 9 5 9 -8 0 -22 -4 -30 -9z"/>
<path d="M9540 1850 c-8 -5 -10 -10 -5 -10 6 0 17 5 25 10 8 5 11 10 5 10 -5
0 -17 -5 -25 -10z"/>
<path d="M9470 1830 c-13 -8 -12 -10 3 -10 9 0 17 5 17 10 0 12 -1 12 -20 0z"/>
<path d="M9358 1792 c-26 -9 -50 -21 -55 -26 -4 -5 -1 -6 7 -3 8 3 39 13 68
22 28 9 52 18 52 21 0 7 -24 3 -72 -14z"/>
</g>
</svg>
